<svg width="128" height="128" viewBox="0 0 128 128" fill="none" xmlns="http://www.w3.org/2000/svg">
<path d="M68.0758 46.3499C74.2754 39.5504 77.714 26.9456 79.4438 18.2382C79.6778 17.0607 82.2055 17.0607 82.4394 18.2382C84.1693 26.9456 87.6079 39.5504 93.8075 46.3499C100.217 53.3796 112.284 57.1728 120.233 59.0044C121.378 59.2683 121.378 61.6533 120.233 61.9172C112.284 63.7489 100.217 67.542 93.8075 74.5717C87.6079 81.3712 84.1693 93.976 82.4394 102.683C82.2055 103.861 79.6778 103.861 79.4438 102.683C77.714 93.976 74.2754 81.3712 68.0758 74.5717C61.6663 67.542 49.5993 63.7489 41.6507 61.9172C40.5053 61.6533 40.5053 59.2683 41.6507 59.0044C49.5993 57.1728 61.6663 53.3796 68.0758 46.3499Z" stroke="white" stroke-width="2.5"/>
<path d="M16.8034 18.4295C18.8415 16.1942 20.2724 12.6823 21.2509 9.32106C21.5865 8.16831 24.6656 8.16831 25.0012 9.32105C25.9797 12.6823 27.4106 16.1942 29.4487 18.4295C31.6652 20.8606 35.2585 22.504 38.5545 23.578C39.6721 23.9422 39.6721 26.7859 38.5545 27.1501C35.2585 28.2242 31.6652 29.8675 29.4487 32.2986C27.4106 34.5339 25.9797 38.0458 25.0012 41.4071C24.6656 42.5598 21.5865 42.5598 21.2509 41.4071C20.2724 38.0458 18.8415 34.5339 16.8034 32.2986C14.5869 29.8675 10.9936 28.2242 7.69761 27.1501C6.58002 26.7859 6.58002 23.9422 7.69761 23.578C10.9936 22.504 14.5869 20.8606 16.8034 18.4295Z" stroke="white" stroke-width="2.5"/>
<path d="M35.0895 95.7013C37.1276 93.466 38.5585 89.954 39.537 86.5928C39.8726 85.44 42.9518 85.44 43.2873 86.5928C44.2659 89.954 45.6968 93.466 47.7348 95.7013C49.9513 98.1323 53.5447 99.7757 56.8406 100.85C57.9582 101.214 57.9582 104.058 56.8406 104.422C53.5447 105.496 49.9513 107.139 47.7348 109.57C45.6968 111.806 44.2659 115.318 43.2873 118.679C42.9518 119.832 39.8726 119.832 39.537 118.679C38.5585 115.318 37.1276 111.806 35.0895 109.57C32.873 107.139 29.2797 105.496 25.9837 104.422C24.8661 104.058 24.8662 101.214 25.9837 100.85C29.2797 99.7757 32.873 98.1323 35.0895 95.7013Z" stroke="white" stroke-width="2.5"/>
</svg>
